<svg xmlns="http://www.w3.org/2000/svg" xmlns:xlink="http://www.w3.org/1999/xlink" viewBox="0 0 40 40"><defs><style>.cls-1{fill:url(#名称未設定グラデーション_6);}.cls-2{fill:#fff;}</style><linearGradient id="名称未設定グラデーション_6" x1="3.47" y1="36.53" x2="36.53" y2="3.47" gradientUnits="userSpaceOnUse"><stop offset="0.01" stop-color="#65dee0"/><stop offset="1" stop-color="#7084f8"/><stop offset="1"/></linearGradient></defs><g id="枠"><rect class="cls-1" x="2" y="2" width="36" height="36" rx="5"/></g><g id="文字"><path class="cls-2" d="M9.63,8.34a1.07,1.07,0,0,1-.24-.65,1,1,0,0,1,1.86-.51l3.28,4.76,3.29-4.76a1,1,0,0,1,1.86.51,1.14,1.14,0,0,1-.24.65l-3.93,5.25v4.9c0,.47-.41.8-1,.8a.86.86,0,0,1-1-.8v-4.9Z"/><path class="cls-2" d="M25.57,6.93c4.07,0,6.51,2.28,6.51,6.06a5.72,5.72,0,0,1-2.61,5.14,7.45,7.45,0,0,1-4,.95h-2a1.76,1.76,0,0,1-2-2V8.92a1.76,1.76,0,0,1,2-2ZM23.4,17a.41.41,0,0,0,.45.46h1.36c3.06,0,4.8-1.59,4.8-4.41s-1.66-4.42-4.72-4.42H23.85A.4.4,0,0,0,23.4,9Z"/><path class="cls-2" d="M12.59,32.05c0,.24.12.36.38.36h5.71a.74.74,0,0,1,.69.82c0,.5-.29.84-.69.84H12.35a1.49,1.49,0,0,1-1.68-1.68V23.6a1.5,1.5,0,0,1,1.68-1.68h6.11a.83.83,0,0,1,0,1.64H13c-.26,0-.38.12-.38.37V27h5.13a.8.8,0,0,1,0,1.59H12.59Z"/><path class="cls-2" d="M23.38,32.05a.32.32,0,0,0,.37.36h5.71a.73.73,0,0,1,.69.82c0,.5-.28.84-.69.84H23.13a1.49,1.49,0,0,1-1.67-1.68V23.6a1.49,1.49,0,0,1,1.67-1.68h6.11a.83.83,0,0,1,0,1.64H23.75a.32.32,0,0,0-.37.37V27H28.5a.8.8,0,0,1,0,1.59H23.38Z"/></g></svg>