<?xml version="1.0" encoding="UTF-8"?><svg id="_ガイド" xmlns="http://www.w3.org/2000/svg" viewBox="0 0 500 500"><defs><style>.cls-1{fill:#fff;}</style></defs><g><path class="cls-1" d="M250,293.13c-54.8,0-99.38-44.58-99.38-99.38s44.58-99.38,99.38-99.38,99.38,44.58,99.38,99.38-44.58,99.38-99.38,99.38Zm0-190.76c-50.39,0-91.38,40.99-91.38,91.38s40.99,91.38,91.38,91.38,91.38-40.99,91.38-91.38-40.99-91.38-91.38-91.38Z"/><path class="cls-1" d="M250.12,316.51c-3.15,0-6.31-.12-9.48-.36-65.83-5.04-116.62-62.75-113.22-128.66,.11-2.21,2.12-3.9,4.2-3.79,2.21,.11,3.9,1.99,3.79,4.2-3.18,61.61,44.3,115.56,105.84,120.27,13.22,1.01,26.34-.24,39.01-3.7,2.12-.59,4.33,.67,4.91,2.8,.58,2.13-.67,4.33-2.8,4.91-10.53,2.88-21.34,4.33-32.26,4.33Z"/><path class="cls-1" d="M368.6,203.81c-.07,0-.14,0-.21,0-2.21-.11-3.9-1.99-3.79-4.2,3.18-61.61-44.3-115.56-105.85-120.27-13.2-1.01-26.33,.23-39.01,3.7-2.14,.57-4.33-.67-4.91-2.8-.58-2.13,.67-4.33,2.8-4.91,13.57-3.71,27.62-5.04,41.73-3.96,65.83,5.04,116.63,62.75,113.23,128.65-.11,2.14-1.88,3.79-3.99,3.79Z"/></g><g><path class="cls-1" d="M125.52,366.07c-.74-1.01-1.1-1.93-1.1-2.95,0-2.12,2.21-4.14,4.51-4.14,1.29,0,2.67,.83,3.59,2.12l21.98,32.01,21.98-32.01c.92-1.29,2.3-2.12,3.59-2.12,2.39,0,4.51,2.02,4.51,4.14,0,1.01-.37,1.93-1.1,2.95l-24.83,34.12v32.01c0,2.02-1.75,3.5-4.14,3.5s-4.14-1.47-4.14-3.5v-32.01l-24.83-34.12Z"/><path class="cls-1" d="M216.14,360.1c10.49,0,18.77,2.12,25.39,6.53,9.75,6.44,14.99,17.2,14.99,30.63,0,23.73-14.99,37.34-41.02,37.34h-12.23c-6.44,0-9.75-3.31-9.75-9.93v-54.64c0-6.62,3.31-9.93,9.75-9.93h12.88Zm-14.26,64.48c0,1.65,.92,2.58,2.58,2.58h10.49c20.42,0,32.47-11.04,32.47-29.8s-11.31-29.8-31.92-29.8h-11.04c-1.75,0-2.58,.83-2.58,2.58v54.45Z"/><path class="cls-1" d="M273.73,425.03c0,1.47,.64,2.12,2.12,2.12h37.25c1.84,0,3.22,1.56,3.22,3.68s-1.38,3.77-3.22,3.77h-38.82c-5.89,0-8.92-3.13-8.92-9.01v-56.48c0-5.89,3.04-9.01,8.92-9.01h37.53c1.75,0,3.22,1.65,3.22,3.68s-1.38,3.68-3.22,3.68h-35.87c-1.47,0-2.21,.74-2.21,2.3v22.54h33.76c1.75,0,3.13,1.47,3.13,3.49s-1.29,3.59-3.13,3.59h-33.76v25.66Z"/><path class="cls-1" d="M331.42,425.03c0,1.47,.64,2.12,2.12,2.12h37.25c1.84,0,3.22,1.56,3.22,3.68s-1.38,3.77-3.22,3.77h-38.82c-5.89,0-8.92-3.13-8.92-9.01v-56.48c0-5.89,3.04-9.01,8.92-9.01h37.53c1.75,0,3.22,1.65,3.22,3.68s-1.38,3.68-3.22,3.68h-35.87c-1.47,0-2.21,.74-2.21,2.3v22.54h33.76c1.75,0,3.13,1.47,3.13,3.49s-1.29,3.59-3.13,3.59h-33.76v25.66Z"/></g><path class="cls-1" d="M450,15c19.3,0,35,15.7,35,35V450c0,19.3-15.7,35-35,35H50c-19.3,0-35-15.7-35-35V50c0-19.3,15.7-35,35-35H450m0-15H50C22.5,0,0,22.5,0,50V450c0,27.5,22.5,50,50,50H450c27.5,0,50-22.5,50-50V50c0-27.5-22.5-50-50-50h0Z"/></svg>