<svg xmlns="http://www.w3.org/2000/svg" viewBox="0 0 500 500"><defs><linearGradient id="b" x1="0" y1="250" x2="500" y2="250" gradientUnits="userSpaceOnUse"><stop offset="0" stop-color="#55cbf2"/><stop offset="1" stop-color="#2f81ed"/></linearGradient><style>.e{fill:#fff}</style></defs><rect width="500" height="500" rx="50" ry="50" fill="url(#b)" id="a"/><g id="c"><path class="e" d="M250 293.13c-54.8 0-99.38-44.58-99.38-99.38S195.2 94.37 250 94.37s99.38 44.58 99.38 99.38-44.58 99.38-99.38 99.38zm0-190.76c-50.39 0-91.38 40.99-91.38 91.38s40.99 91.38 91.38 91.38 91.38-40.99 91.38-91.38-40.99-91.38-91.38-91.38z"/><path class="e" d="M250.12 316.51c-3.15 0-6.31-.12-9.48-.36-32.15-2.46-61.58-17.15-82.85-41.38-21.24-24.18-32.03-55.18-30.37-87.28.11-2.21 1.98-3.92 4.2-3.79 2.21.11 3.9 1.99 3.79 4.2-3.18 61.61 44.31 115.56 105.85 120.27 13.21 1.01 26.33-.24 39.01-3.7a3.996 3.996 0 112.11 7.71 122.04 122.04 0 01-32.25 4.33zm118.48-112.7h-.21a3.996 3.996 0 01-3.79-4.2C367.78 138 320.3 84.05 258.76 79.34c-13.21-1.01-26.33.24-39.01 3.7a3.996 3.996 0 11-2.11-7.71c13.57-3.71 27.61-5.04 41.73-3.96 32.15 2.46 61.58 17.15 82.85 41.38 21.24 24.18 32.03 55.18 30.37 87.28a3.996 3.996 0 01-3.99 3.79z"/></g><path class="e" d="M125.52 366.06c-.74-1.01-1.1-1.93-1.1-2.94 0-2.12 2.21-4.14 4.51-4.14 1.29 0 2.67.83 3.59 2.12l21.99 32.01 21.99-32.01c.92-1.29 2.3-2.12 3.59-2.12 2.39 0 4.51 2.02 4.51 4.14 0 1.01-.37 1.93-1.1 2.94l-24.84 34.13v32.01c0 2.02-1.75 3.5-4.14 3.5s-4.14-1.47-4.14-3.5v-32.01l-24.84-34.13zm90.62-5.98c10.49 0 18.77 2.12 25.39 6.53 9.75 6.44 15 17.2 15 30.63 0 23.74-15 37.35-41.03 37.35h-12.24c-6.44 0-9.75-3.31-9.75-9.94V370c0-6.62 3.31-9.94 9.75-9.94h12.88zm-14.26 64.49c0 1.66.92 2.58 2.58 2.58h10.49c20.42 0 32.47-11.04 32.47-29.81s-11.32-29.81-31.92-29.81h-11.04c-1.75 0-2.58.83-2.58 2.58v54.46zm71.85.46c0 1.47.64 2.12 2.12 2.12h37.26c1.84 0 3.22 1.56 3.22 3.68s-1.38 3.77-3.22 3.77h-38.82c-5.89 0-8.92-3.13-8.92-9.02v-56.49c0-5.89 3.04-9.02 8.92-9.02h37.53c1.75 0 3.22 1.66 3.22 3.68s-1.38 3.68-3.22 3.68h-35.88c-1.47 0-2.21.74-2.21 2.3v22.54h33.76c1.75 0 3.13 1.47 3.13 3.5s-1.29 3.59-3.13 3.59h-33.76v25.67zm57.69 0c0 1.47.64 2.12 2.12 2.12h37.26c1.84 0 3.22 1.56 3.22 3.68s-1.38 3.77-3.22 3.77h-38.82c-5.89 0-8.92-3.13-8.92-9.02v-56.49c0-5.89 3.04-9.02 8.92-9.02h37.53c1.75 0 3.22 1.66 3.22 3.68s-1.38 3.68-3.22 3.68h-35.88c-1.47 0-2.21.74-2.21 2.3v22.54h33.76c1.75 0 3.13 1.47 3.13 3.5s-1.29 3.59-3.13 3.59h-33.76v25.67z" id="d"/></svg>